<svg preserveAspectRatio="none" width="100%" height="100%" overflow="visible" style="display: block;" viewBox="0 0 15 15" fill="none" xmlns="http://www.w3.org/2000/svg">
<g id="Icon" clip-path="url(#clip0_0_5)">
<path id="Vector" d="M10.625 1.25H4.375C2.64911 1.25 1.25 2.64911 1.25 4.375V10.625C1.25 12.3509 2.64911 13.75 4.375 13.75H10.625C12.3509 13.75 13.75 12.3509 13.75 10.625V4.375C13.75 2.64911 12.3509 1.25 10.625 1.25Z" stroke="var(--stroke-0, white)" stroke-width="1.66667" stroke-linecap="round" stroke-linejoin="round"/>
<path id="Vector_2" d="M10 7.10613C10.0771 7.62629 9.98829 8.15752 9.74611 8.62427C9.50392 9.09102 9.12072 9.46952 8.65102 9.70593C8.18132 9.94234 7.64904 10.0246 7.12987 9.94109C6.61071 9.85755 6.13111 9.61243 5.75928 9.24061C5.38746 8.86878 5.14234 8.38918 5.0588 7.87002C4.97526 7.35085 5.05755 6.81857 5.29396 6.34887C5.53037 5.87917 5.90887 5.49597 6.37562 5.25378C6.84237 5.0116 7.3736 4.92275 7.89376 4.99988C8.42433 5.07856 8.91554 5.3258 9.29482 5.70507C9.67409 6.08435 9.92133 6.57556 10 7.10613Z" stroke="var(--stroke-0, white)" stroke-width="1.66667" stroke-linecap="round" stroke-linejoin="round"/>
<path id="Vector_3" d="M10.9375 4.0625H10.9438" stroke="var(--stroke-0, white)" stroke-width="1.66667" stroke-linecap="round" stroke-linejoin="round"/>
</g>
<defs>
<clipPath id="clip0_0_5">
<rect width="15" height="15" fill="white"/>
</clipPath>
</defs>
</svg>
